<?xml version="1.0" encoding="utf-8"?>
<svg fill="#000000" height="800px" width="800px" version="1.1" id="Capa_1" xmlns="http://www.w3.org/2000/svg" viewBox="0 0 58 58" xmlns:bx="https://boxy-svg.com">
  <defs>
    <bx:export>
      <bx:file format="svg" path="未命名.svg"/>
    </bx:export>
  </defs>
  <g>
    <path d="M 57.5 3.378 C 57.5 1.937 56.558 1 54.978 1 L 2.963 1 C 1.776 1 0.5 1.916 0.5 3.926 L 0.5 54.537 L 0.5 55 C 0.5 55.837 1.341 56.652 2.336 56.909 C 2.387 56.923 2.436 56.942 2.488 56.952 C 2.644 56.983 2.803 57 2.963 57 L 55.037 57 C 55.197 57 55.356 56.983 55.512 56.952 C 55.564 56.942 55.613 56.923 55.664 56.909 C 56.659 56.652 57.5 55.837 57.5 55 L 57.5 54.537 L 57.5 3.378 Z M 2.963 55 C 2.892 55 2.828 54.975 2.765 54.951 C 2.61 54.877 2.5 54.721 2.5 54.537 L 2.5 11 L 55.5 11 L 55.5 54.537 C 55.5 54.721 55.39 54.877 55.235 54.951 C 55.172 54.975 55.108 55 55.037 55 L 2.963 55 Z M 2.5 9 L 2.5 3.926 C 2.5 3.709 2.533 3 2.963 3 L 54.956 3 C 54.923 3.126 55.376 3.244 55.5 3.544 C 55.506 3.558 55.501 9 55.501 9 L 2.5 9 Z"/>
    <path d="M 29.151 40.11 C 29.12 41.057 28.874 41.735 28.408 42.13 C 27.943 42.526 27.318 42.725 26.535 42.725 C 26.225 42.725 25.893 42.678 25.537 42.58 C 25.182 42.483 24.842 42.372 24.517 42.247 C 24.193 42.121 23.893 41.984 23.619 41.841 C 23.345 41.695 23.134 41.555 22.986 41.42 L 21.856 43.774 C 22.153 44.064 22.513 44.327 22.943 44.557 C 23.372 44.789 23.818 44.997 24.284 45.183 C 24.749 45.367 25.2 45.501 25.636 45.588 C 26.073 45.676 26.454 45.72 26.778 45.72 C 27.428 45.72 28.061 45.636 28.674 45.474 C 29.287 45.309 29.83 45.019 30.304 44.601 C 30.778 44.184 31.154 43.633 31.434 42.947 C 31.715 42.26 31.856 41.409 31.856 40.403 L 31.856 23.72 L 29.151 23.72 L 29.151 40.11 Z"/>
    <path d="M 15.428 29.5 L 15.428 23.5 C 15.428 22.67 16.004 22 16.714 22 C 17.425 22 18 21.331 18 20.5 C 18 19.669 17.425 19 16.714 19 C 14.588 19 12.858 21.017 12.858 23.5 L 12.858 29.5 C 12.858 31.153 11.703 32.5 10.286 32.5 C 9.575 32.5 9 33.169 9 34 C 9 34.831 9.575 35.5 10.286 35.5 C 11.703 35.5 12.858 36.847 12.858 38.5 L 12.858 44.5 C 12.858 46.983 14.588 49 16.714 49 C 17.425 49 18 48.331 18 47.5 C 18 46.669 17.425 46 16.714 46 C 16.004 46 15.428 45.33 15.428 44.5 L 15.428 38.5 C 15.428 36.7 14.732 35.103 13.652 34 C 14.732 32.897 15.428 31.3 15.428 29.5 Z"/>
    <path d="M 47.428 29.5 L 47.428 23.5 C 47.428 22.67 48.004 22 48.714 22 C 49.425 22 50 21.331 50 20.5 C 50 19.669 49.425 19 48.714 19 C 46.588 19 44.858 21.017 44.858 23.5 L 44.858 29.5 C 44.858 31.153 43.703 32.5 42.286 32.5 C 41.575 32.5 41 33.169 41 34 C 41 34.831 41.575 35.5 42.286 35.5 C 43.703 35.5 44.858 36.847 44.858 38.5 L 44.858 44.5 C 44.858 46.983 46.588 49 48.714 49 C 49.425 49 50 48.331 50 47.5 C 50 46.669 49.425 46 48.714 46 C 48.004 46 47.428 45.33 47.428 44.5 L 47.428 38.5 C 47.428 36.7 46.732 35.103 45.652 34 C 46.732 32.897 47.428 31.3 47.428 29.5 Z" style="transform-box: fill-box; transform-origin: 50% 50%;" transform="matrix(-1, 0, 0, -1, 0.000002, 0.000002)"/>
  </g>
</svg>